HIERARCHY
ROOT Hips
{
  OFFSET 0 0 0
  CHANNELS 6 Xposition Yposition Zposition Zrotation Yrotation Xrotation
  JOINT LeftThigh
  {
    OFFSET 8.409438 0 -5.917753
    CHANNELS 3 Zrotation Yrotation Xrotation
    JOINT LeftLeg
    {
      OFFSET 0 0 -42.358652
      CHANNELS 3 Zrotation Yrotation Xrotation
      JOINT LeftFoot
      {
        OFFSET 0 0 -39.357303
        CHANNELS 3 Zrotation Yrotation Xrotation
      }
    }
  }
  JOINT RightThigh
  {
    OFFSET -8.409438 0 -5.917753
    CHANNELS 3 Zrotation Yrotation Xrotation
    JOINT RightLeg
    {
      OFFSET 0 0 -42.358652
      CHANNELS 3 Zrotation Yrotation Xrotation
      JOINT RightFoot
      {
        OFFSET 0 0 -39.357303
        CHANNELS 3 Zrotation Yrotation Xrotation
      }
    }
  }
  JOINT SpineLow
  {
    OFFSET 0 0 4.719101
    CHANNELS 3 Zrotation Yrotation Xrotation
    JOINT SpineMid
    {
      OFFSET 0 0 12.899191
      CHANNELS 3 Zrotation Yrotation Xrotation
      JOINT Chest
      {
        OFFSET 0 0 12.899191
        CHANNELS 3 Zrotation Yrotation Xrotation
        JOINT LeftShoulder
        {
          OFFSET 7.550562 1.41573 9.438202
          CHANNELS 3 Zrotation Yrotation Xrotation
          JOINT LeftArm
          {
            OFFSET 9.155056 0 4.247191
            CHANNELS 3 Zrotation Yrotation Xrotation
            JOINT LeftForearm
            {
              OFFSET 0 0 25.771955
              CHANNELS 3 Zrotation Yrotation Xrotation
              JOINT LeftHand
              {
                OFFSET 0 0 25.197169
                CHANNELS 3 Zrotation Yrotation Xrotation
              }
            }
          }
        }
        JOINT RightShoulder
        {
          OFFSET -7.550562 1.41573 9.438202
          CHANNELS 3 Zrotation Yrotation Xrotation
          JOINT RightArm
          {
            OFFSET -9.155056 0 4.247191
            CHANNELS 3 Zrotation Yrotation Xrotation
            JOINT RightForearm
            {
              OFFSET 0 0 -25.771955
              CHANNELS 3 Zrotation Yrotation Xrotation
              JOINT RightHand
              {
                OFFSET 0 0 -25.197169
                CHANNELS 3 Zrotation Yrotation Xrotation
              }
            }
          }
        }
        JOINT Neck
        {
          OFFSET 0 0 15.101124
          CHANNELS 3 Zrotation Yrotation Xrotation
          JOINT Head
          {
            OFFSET 0 0 11.325843
            CHANNELS 3 Zrotation Yrotation Xrotation
            End Site
            {
              OFFSET 0 0 14.157303
            }
          }
        }
      }
    }
  }
}
MOTION
Frames: 10
Frame Time: 0.0
0.0  89.887642  0.0  -1.35953  23.278203  -119.221877  9.663833  -8.095517  18.509802  -9.926084  11.326436  20.06435  -1.60306  -1.110811  1.176029  0.62897  -8.395406  -92.978812  22.496733  13.778744  118.674176  5.582704  1.198124  0.424472  -4.667075  -0.447299  0.264189  -12.762927  -1.166548  0.805224  -12.762927  -1.166548  0.805224  9.65927  38.430118  38.314606  -160.129955  55.53569  -102.377348  -18.498644  -7.589333  49.579889  88.038141  10.943188  5.287539  8.557904  19.549526  39.775067  52.970087  31.229602  2.897888  -21.457677  3.976659  -70.519403  77.289349  -12.178211  21.955602  -20.32817  13.684626  15.299014  -15.532086  9.777034  11.897366  
0.0  89.887642  0.0  -1.18501  23.243387  -118.696057  8.867671  -7.250127  18.268512  -8.614963  10.903784  19.704543  -1.501955  -1.140731  1.207923  0.711919  -8.619409  -92.173924  22.969021  13.669725  118.880618  5.670942  1.251173  0.396339  -4.59157  -0.430081  0.245874  -12.555946  -1.124138  0.750808  -12.555946  -1.124138  0.750808  9.326239  38.302852  37.74567  -159.699913  55.692696  -102.452073  -18.375928  -7.302882  49.252189  87.859566  11.725353  6.637889  8.268138  19.523942  39.783487  52.538739  30.954426  2.995671  -21.424597  4.870294  -71.042882  77.384719  -12.711316  22.209195  -20.674781  13.435276  15.203995  -15.784873  9.584416  11.827947  
0.0  89.887642  0.0  -0.858985  23.135716  -118.254056  8.517847  -6.698284  18.062092  -7.590061  10.760724  19.571337  -1.474644  -1.200367  1.143579  1.086991  -8.664071  -91.120104  23.370089  13.725567  118.998597  5.656215  1.313823  0.328846  -4.5837  -0.378254  0.220229  -12.533278  -0.988009  0.671049  -12.533278  -0.988009  0.671049  9.542861  38.192546  37.272439  -159.073952  55.660447  -102.588366  -18.187071  -6.891426  49.087425  87.911098  12.30917  7.877363  8.555069  19.335877  40.029622  52.240513  30.830322  3.171158  -21.695253  6.039841  -71.502097  77.576199  -13.224239  21.775821  -20.712126  13.241861  15.152892  -15.808616  9.439772  11.785289  
0.0  89.887642  0.0  -0.539104  23.147135  -117.679949  8.62587  -6.45529  17.772703  -7.397217  10.766145  19.38552  -1.588437  -1.063919  1.031825  1.265978  -8.372118  -90.180701  23.501481  13.831651  118.980261  5.70418  1.406142  0.308555  -4.623499  -0.314646  0.167112  -12.640586  -0.824574  0.514892  -12.640586  -0.824574  0.514892  9.992822  38.066638  37.040523  -158.202486  55.647538  -102.39597  -17.83499  -6.552332  48.999724  88.193239  12.761596  8.71769  8.935491  19.22493  40.474821  52.127544  30.869219  3.184255  -22.021517  7.330552  -71.889043  77.337396  -13.94608  21.646101  -20.612075  13.076432  15.142548  -15.731089  9.31807  11.770633  
0.0  89.887642  0.0  -0.326487  23.232678  -117.086031  8.976564  -6.528211  17.25706  -9.369936  11.455362  18.502724  -0.151746  -0.738983  1.424842  1.313487  -7.98372  -89.14724  23.421024  14.014108  118.786991  5.809927  1.536771  0.321357  -4.647634  -0.242241  0.112124  -12.705301  -0.63784  0.351622  -12.705301  -0.63784  0.351622  10.198595  37.802521  36.934383  -157.265355  55.602793  -102.036096  -17.360641  -6.372154  49.02897  88.651752  13.067375  9.442606  9.050595  19.123031  41.057968  52.066321  30.996365  3.019604  -22.548826  8.17194  -72.101335  77.145337  -14.614226  21.534619  -20.547362  12.888843  15.220341  -15.681617  9.175991  11.822126  
0.0  89.887642  0.0  -0.300262  23.270923  -116.546844  9.523817  -6.830074  16.45363  -9.990346  12.009619  18.662855  -0.172542  -0.660221  1.403904  1.132794  -7.460964  -88.169993  23.027063  14.058543  118.533511  5.800599  1.605146  0.300245  -4.625513  -0.180065  0.09118  -12.644235  -0.472728  0.282537  -12.644234  -0.472728  0.282537  9.85573  37.408486  36.712929  -156.35324  55.508664  -101.65574  -16.934203  -6.331117  49.254265  89.269846  13.442254  10.223273  8.756519  18.978382  41.330221  52.063829  30.969466  2.912392  -22.644583  8.64077  -72.353151  76.317854  -15.100745  22.172898  -20.650347  12.602297  15.259726  -15.754956  8.956782  11.846  
0.0  89.887642  0.0  -0.417621  23.383347  -115.973174  10.219975  -7.267096  15.477101  -10.879589  12.599263  18.917876  -0.36295  -0.557738  1.363043  0.818629  -7.100501  -87.327285  22.641496  14.006898  118.27211  5.772924  1.681519  0.30367  -4.624931  -0.165331  0.058543  -12.642351  -0.438851  0.190886  -12.642352  -0.438851  0.190886  9.493534  37.172631  36.65139  -155.684841  55.27586  -101.351081  -16.580849  -6.484098  49.667252  90.054444  13.98174  11.12836  8.452074  18.982917  41.419986  52.042526  30.794078  3.020819  -22.526896  8.717469  -72.669614  75.519457  -15.356873  23.213037  -20.633662  12.408527  15.25623  -15.739318  8.811587  11.837621  
0.0  89.887642  0.0  -0.516322  23.434837  -115.465639  11.012583  -7.751582  14.563885  -11.756288  13.167821  19.17615  -0.386567  -0.48431  1.341374  0.463711  -6.622964  -86.539083  22.196605  13.92115  118.147014  5.910862  1.748449  0.262426  -4.651944  -0.162113  0.057743  -12.71617  -0.430161  0.188268  -12.71617  -0.430161  0.188268  9.257481  36.989883  36.499171  -155.241683  54.97421  -101.120517  -16.279516  -6.687757  50.174056  90.853657  14.652112  12.126738  8.288379  18.994913  41.178016  52.15549  30.526662  3.41044  -22.305051  8.816663  -73.144405  74.695937  -15.66503  24.594181  -20.606314  12.163715  15.086785  -15.711254  8.633723  11.703435  
0.0  89.887642  0.0  -0.493791  23.276668  -115.105892  11.866751  -8.000656  14.001157  -12.369667  13.434602  19.292311  -0.456651  -0.408764  1.415846  0.511898  -6.20579  -85.396578  21.811122  14.082305  117.964106  6.024184  1.787185  0.220719  -4.660458  -0.184606  0.125385  -12.740021  -0.47835  0.376754  -12.740021  -0.47835  0.376754  8.865034  36.957388  35.962062  -154.994353  54.688873  -100.970941  -16.05303  -6.817012  50.67417  91.397474  15.139098  13.073943  8.235294  19.133823  40.714873  51.940096  30.436235  3.894615  -21.90848  8.852271  -73.914511  73.509634  -15.95728  26.146907  -20.537883  11.924304  14.749319  -15.649085  8.466384  11.442768  
0.0  89.887642  0.0  -0.422385  23.067338  -114.661867  12.432739  -7.863773  13.525144  -12.533008  13.37749  19.329705  -0.430307  -0.463596  1.439059  0.378207  -5.811489  -84.428691  21.554622  14.053998  117.883566  6.162448  1.833675  0.16665  -4.686751  -0.209019  0.19306  -12.812597  -0.531551  0.565845  -12.812597  -0.531551  0.565845  8.441583  36.901394  35.125373  -154.891506  54.47369  -101.042196  -15.937813  -6.808509  51.245306  91.608276  15.165167  13.909715  8.231899  19.26726  40.063282  52.242292  30.443489  4.565594  -21.820591  8.911675  -74.668058  72.141415  -16.167479  27.678485  -20.417882  11.647606  14.380337  -15.54737  8.273153  11.156355  
